<svg width="1000" height="1000" viewBox="0 0 1000 1000" xmlns="http://www.w3.org/2000/svg">
  <defs>
    <radialGradient id="sqDeepBg" cx="50%" cy="48%" r="65%">
      <stop offset="0%" stop-color="#0d1527"/>
      <stop offset="60%" stop-color="#050813"/>
      <stop offset="100%" stop-color="#020409"/>
    </radialGradient>
    <radialGradient id="sqAmberAura" cx="50%" cy="38%" r="40%">
      <stop offset="0%" stop-color="#f59e0b" stop-opacity="0.25"/>
      <stop offset="50%" stop-color="#d97706" stop-opacity="0.1"/>
      <stop offset="100%" stop-color="#050813" stop-opacity="0"/>
    </radialGradient>
    <linearGradient id="sqGoldGradient" x1="0%" y1="0%" x2="100%" y2="0%">
      <stop offset="0%" stop-color="#FDE68A"/>
      <stop offset="50%" stop-color="#F59E0B"/>
      <stop offset="100%" stop-color="#D97706"/>
    </linearGradient>
    <linearGradient id="sqBorderGrad" x1="0%" y1="0%" x2="100%" y2="100%">
      <stop offset="0%" stop-color="#334155" stop-opacity="0.8"/>
      <stop offset="50%" stop-color="#f59e0b" stop-opacity="0.5"/>
      <stop offset="100%" stop-color="#1e293b" stop-opacity="0.8"/>
    </linearGradient>
    <filter id="sqBeaconGlow" x="-50%" y="-50%" width="200%" height="200%">
      <feGaussianBlur stdDeviation="28" result="blur1"/>
      <feGaussianBlur stdDeviation="10" result="blur2"/>
      <feMerge>
        <feMergeNode in="blur1"/>
        <feMergeNode in="blur2"/>
        <feMergeNode in="SourceGraphic"/>
      </feMerge>
    </filter>
    <pattern id="sqGrid" width="40" height="40" patternUnits="userSpaceOnUse">
      <path d="M 40 0 L 0 0 0 40" fill="none" stroke="#1e293b" stroke-width="0.75" stroke-opacity="0.35"/>
    </pattern>
  </defs>

  <!-- Background -->
  <rect width="1000" height="1000" fill="#020409"/>
  <rect width="1000" height="1000" fill="url(#sqDeepBg)"/>
  <rect width="1000" height="1000" fill="url(#sqGrid)"/>

  <!-- Radial Illumination -->
  <circle cx="500" cy="380" r="380" fill="url(#sqAmberAura)"/>

  <!-- Framing & Calibration Marks -->
  <rect x="36" y="36" width="928" height="928" rx="10" fill="none" stroke="url(#sqBorderGrad)" stroke-width="1.2"/>
  <rect x="46" y="46" width="908" height="908" rx="8" fill="none" stroke="#0f172a" stroke-width="0.8" stroke-dasharray="6 6" opacity="0.6"/>

  <g stroke="#f59e0b" stroke-width="1.2" opacity="0.8">
    <line x1="30" y1="36" x2="42" y2="36"/><line x1="36" y1="30" x2="36" y2="42"/>
    <line x1="958" y1="36" x2="970" y2="36"/><line x1="964" y1="30" x2="964" y2="42"/>
    <line x1="30" y1="964" x2="42" y2="964"/><line x1="36" y1="958" x2="36" y2="970"/>
    <line x1="958" y1="964" x2="970" y2="964"/><line x1="964" y1="958" x2="964" y2="970"/>
  </g>

  <!-- Top Badges -->
  <g transform="translate(80, 80)">
    <rect x="0" y="0" width="270" height="28" rx="14" fill="#0b1329" stroke="#334155" stroke-width="0.8"/>
    <circle cx="14" cy="14" r="4" fill="#f59e0b"/>
    <text x="28" y="18" font-family="'JetBrains Mono', monospace" font-size="10.5" font-weight="600" fill="#cbd5e1" letter-spacing="0.16em">FIRE KEEPER INTELLIGENCE</text>
  </g>

  <!-- Concentric Rings -->
  <g opacity="0.45">
    <circle cx="500" cy="360" r="230" stroke="#334155" stroke-width="0.8" stroke-dasharray="4 8" fill="none"/>
    <circle cx="500" cy="360" r="160" stroke="#f59e0b" stroke-width="0.6" stroke-dasharray="2 6" fill="none" opacity="0.6"/>
    <circle cx="500" cy="360" r="105" stroke="#475569" stroke-width="0.8" fill="none"/>
  </g>

  <!-- Beacon Flame Icon -->
  <g transform="translate(500, 275) scale(2.8)" filter="url(#sqBeaconGlow)">
    <path d="M8.5 14.5A2.5 2.5 0 0 0 11 12c0-1.38-.5-2-1-3-1.072-2.143-.224-4.054 2-6 .5 2.5 2 4.9 4 6.5 2 1.6 3 3.5 3 5.5a7 7 0 1 1-14 0c0-1.153.433-2.294 1-3a2.5 2.5 0 0 0 2.5 2.5z" 
          fill="none" 
          stroke="url(#sqGoldGradient)" 
          stroke-width="1.6" 
          stroke-linecap="round" 
          stroke-linejoin="round"/>
    <circle cx="12" cy="12" r="1.5" fill="#fef3c7"/>
  </g>

  <!-- Title -->
  <text x="500" y="475" text-anchor="middle" font-family="'Plus Jakarta Sans', sans-serif" font-weight="800" font-size="62" fill="#FFFFFF" letter-spacing="0.38em">FIRE KEEPER</text>

  <!-- Subtitle -->
  <text x="500" y="525" text-anchor="middle" font-family="'Plus Jakarta Sans', sans-serif" font-weight="500" font-size="17" fill="#cbd5e1" letter-spacing="0.25em">EXECUTIVE DECISION INTELLIGENCE</text>
  <text x="500" y="555" text-anchor="middle" font-family="'Plus Jakarta Sans', sans-serif" font-weight="400" font-size="14" fill="#94a3b8" letter-spacing="0.22em">&amp; ENTERPRISE AI GOVERNANCE PLATFORM</text>

  <!-- Architecture Pill -->
  <g transform="translate(500, 630)">
    <rect x="-265" y="-20" width="530" height="40" rx="20" fill="#0b1329" fill-opacity="0.95" stroke="url(#sqBorderGrad)" stroke-width="1.2"/>
    <circle cx="-230" cy="0" r="5" fill="#f59e0b"/>
    <text x="10" y="6" text-anchor="middle" font-family="'JetBrains Mono', monospace" font-size="13" font-weight="700" fill="#f8fafc" letter-spacing="0.2em">PUNN PREDICTIVE COGNITIVE ARCHITECTURE</text>
  </g>
  <text x="500" y="685" text-anchor="middle" font-family="'JetBrains Mono', monospace" font-size="12" font-weight="600" fill="#f59e0b" letter-spacing="0.3em">PCA v3.0 · 12-STAGE COGNITIVE PIPELINE</text>

  <!-- Creed -->
  <line x1="260" y1="740" x2="740" y2="740" stroke="#1e293b" stroke-width="1"/>
  <line x1="440" y1="740" x2="560" y2="740" stroke="#f59e0b" stroke-width="1.5"/>
  <text x="500" y="780" text-anchor="middle" font-family="'Plus Jakarta Sans', sans-serif" font-style="italic" font-size="16" fill="#e2e8f0" letter-spacing="0.08em">
    &#8220;We do not replace human judgment. We illuminate it.&#8221;
  </text>
  <text x="500" y="815" text-anchor="middle" font-family="'JetBrains Mono', monospace" font-size="11.5" fill="#94a3b8" letter-spacing="0.24em">
    GROUND TRUTH <tspan fill="#f59e0b">·</tspan> REASONING <tspan fill="#f59e0b">·</tspan> HUMAN SOVEREIGNTY
  </text>

  <!-- Footer -->
  <g transform="translate(80, 915)">
    <text x="0" y="0" font-family="'JetBrains Mono', monospace" font-size="11" font-weight="600" fill="#64748b" letter-spacing="0.16em">
      ATTRIBUTION: <tspan fill="#cbd5e1">AI ASSISTS. PUNN CREATES.</tspan>
    </text>
    <text x="840" y="0" text-anchor="end" font-family="'JetBrains Mono', monospace" font-size="11.5" font-weight="600" fill="#f59e0b" letter-spacing="0.14em">
      https://firekeeper.site
    </text>
  </g>
</svg>